<!-- Roof, glass front and back, wheels showing at the sides. -->
<svg xmlns="http://www.w3.org/2000/svg" width="30" height="46" viewBox="0 0 30 46" shape-rendering="geometricPrecision" stroke="#3b2d32" stroke-width="0.8" stroke-linejoin="round" stroke-linecap="round">
  <path d="M6 11 Q15 9 24 11 L24 16 L6 16 Z" fill="#2f3742"/>
  <path d="M6 30 Q15 32 24 30 L24 35 L6 35 Z" fill="#2f3742"/>
  <path d="M8 17 Q15 15 22 17 L22 28 Q15 30 8 28 Z" fill="#556779" fill-opacity="0.8"/>
  <path d="M9 18 Q15 16 21 18" fill="none" stroke="#a8c1c6" stroke-width="0.8"/>
  <rect x="1" y="14" width="3" height="7" fill="#26232a"/>
  <rect x="26" y="14" width="3" height="7" fill="#26232a"/>
  <rect x="1" y="30" width="3" height="7" fill="#26232a"/>
  <rect x="26" y="30" width="3" height="7" fill="#26232a"/>
  <path d="M5 6 L10 6 L9 10 L5 9 Z M20 6 L25 6 L25 9 L21 10 Z" fill="#f0d99a"/>
</svg>
