<!-- Policeman on foot waiting, front diagonal, east-authored. Peaked cap, police-blue tunic, black duty belt and a baton at the hip; the pale collar and silver badge are the police car's white. Ground anchor (11,44). -->
<svg xmlns="http://www.w3.org/2000/svg" width="22" height="44" viewBox="0 0 22 44" shape-rendering="geometricPrecision" stroke="#3b2d32" stroke-width="0.8" stroke-linejoin="round" stroke-linecap="round">
  <path d="M7 30 L11 30.5 L10.5 42 L6.5 42Z M12 30 L16 30 L17.5 42 L12.5 42Z" fill="#1f2740"/>
  <path d="M5.5 41 L11 41 L11.5 44 L5 44Z M12 41 L18 41 L19.5 44 L12.5 44Z" fill="#17171c"/>
  <path d="M4.5 13.5 L12 12 L18 14.5 L17.5 31 L11.5 32.5 L5 31Z" fill="#31497a"/>
  <path d="M4.5 13.5 L8 13 L8.5 32 L5 31Z" fill="#263a63"/>
  <path d="M4.8 27 L11.5 28.3 L17.6 27 L17.6 29.5 L11.5 30.8 L4.9 29.5Z" fill="#17171c"/>
  <rect x="11.6" y="27.6" width="2" height="1.9" fill="#d8dde4" stroke-width="0.5"/>
  <path d="M10.5 12.4 L13 16.5 L15.5 13.2Z" fill="#d8dde4"/>
  <path d="M13 15 L13 18.5" fill="none" stroke="#17171c" stroke-width="1"/>
  <path d="M14.4 17.2 L16.4 17.2 L16.4 19.2 L15.4 20.2 L14.4 19.2Z" fill="#d8dde4" stroke-width="0.5"/>
  <path d="M18.4 25 L19.2 34" fill="none" stroke="#17171c" stroke-width="1.6"/>
  <path d="M5 14.5 L3 19 L3.5 28.5 L6.5 28.5 L7.5 17Z M17 15 L19.5 19 L19 28.5 L16 28.5 L15.5 18Z" fill="#263a63"/>
  <circle cx="5" cy="29.3" r="1.5" fill="#d9a878"/>
  <circle cx="17.5" cy="29.3" r="1.5" fill="#d9a878"/>
  <g transform="translate(12 8.5)">
  <ellipse cx="0.8" cy="0" rx="5" ry="5.5" fill="#d9a878"/>
  <path d="M-4.6 -1.5 Q-5.4 2 -3.6 3.6 L-2.4 -0.6Z" fill="#3a2b26"/>
  <path d="M-6.5 -3.6 Q0 -8.5 7.5 -4.2 L5.5 -1.5 L-5 -1.7Z" fill="#22304f"/>
  <path d="M-5 -2.5 L5.7 -2.3 L5.7 -0.6 L-5 -0.8Z" fill="#121218"/>
  <path d="M-2.6 -0.5 L6.6 -0.4 L5.6 1.3 L-1.4 1.2Z" fill="#121218"/>
  <circle cx="1.5" cy="-4.8" r="1" fill="#d8dde4" stroke-width="0.5"/>
  <circle cx="1.2" cy="2.3" r="0.5" fill="#221f28"/>
  <circle cx="4.2" cy="2.3" r="0.5" fill="#221f28"/>
  </g>
</svg>
