<!-- An industrial building's entrance in the cardinal 2.5D projection: a heavy riveted steel
     door in a steel frame under a steel lintel, with a wired-glass vision panel, strap hinges, a
     push bar and a tread-plate kick panel, over a concrete sill with a hazard-striped nose. One
     facade column wide; transparent round the frame so the building's own tinted wall shows.
     Ground anchor (16,36). -->
<svg xmlns="http://www.w3.org/2000/svg" width="32" height="36" viewBox="0 0 32 36" shape-rendering="geometricPrecision" stroke="#3b2d32" stroke-width="0.8" stroke-linejoin="round" stroke-linecap="round">
  <path d="M4.5 5 H27.5 V33 H4.5 Z" fill="#6c7271"/>
  <path d="M5.3 6 V32.4" fill="none" stroke="#8b9395" stroke-width="0.7"/>
  <path d="M7 7.2 H25 V33 H7 Z" fill="#56636a"/>
  <path d="M7.8 8 H24.2" fill="none" stroke="#72828a" stroke-width="0.7"/>
  <path d="M12.5 10 H19.5 V17 H12.5 Z" fill="#2c3438"/>
  <path d="M13.2 12.3 H18.8 M13.2 14.6 H18.8 M14.8 10.6 V16.4 M17.2 10.6 V16.4" fill="none" stroke="#56686e" stroke-width="0.4"/>
  <path d="M13.4 16 L17.6 10.8" fill="none" stroke="#a5b6bb" stroke-width="0.6" stroke-opacity="0.7"/>
  <path d="M6.2 10.5 H11 V12.3 H6.2 Z M6.2 26.5 H11 V28.3 H6.2 Z" fill="#3f4a4f"/>
  <path d="M7.6 19.2 H24.4 M7.6 24.8 H24.4" fill="none" stroke="#46535a" stroke-width="0.7"/>
  <path d="M10.2 12.4 C10.4 15 9.8 17 10.3 19 M10.2 28.4 C10.5 29.6 10 30.6 10.4 31.6" fill="none" stroke="#7d5a44" stroke-width="0.6" stroke-opacity="0.75"/>
  <path d="M9 20.4 H23.6 V22 H9 Z" fill="#a9b1b3"/>
  <path d="M10 22 V23.4 M22.6 22 V23.4" fill="none" stroke-width="1"/>
  <path d="M7 28.6 H25 V33 H7 Z" fill="#7c8184"/>
  <path d="M8.4 32 L9.8 30.2 M11.6 32 L13 30.2 M14.8 32 L16.2 30.2 M18 32 L19.4 30.2 M21.2 32 L22.6 30.2" fill="none" stroke="#5f6467" stroke-width="0.6"/>
  <g fill="#8b979c" stroke="none">
    <circle cx="8.4" cy="9" r="0.6"/><circle cx="23.6" cy="9" r="0.6"/>
    <circle cx="23.6" cy="18.8" r="0.6"/><circle cx="23.6" cy="26.6" r="0.6"/>
    <circle cx="16" cy="9" r="0.6"/>
  </g>
  <path d="M1.4 1.2 H30.6 V2.6 H1.4 Z" fill="#555c5f"/>
  <path d="M3 2.6 H29 V4.4 H3 Z" fill="#4a5154"/>
  <path d="M1.4 4.4 H30.6 V5.8 H1.4 Z" fill="#555c5f"/>
  <g fill="#8b979c" stroke="none">
    <circle cx="5.5" cy="3.5" r="0.55"/><circle cx="12" cy="3.5" r="0.55"/><circle cx="20" cy="3.5" r="0.55"/><circle cx="26.5" cy="3.5" r="0.55"/>
  </g>
  <path d="M4.5 5.8 H27.5" fill="none" stroke="#221f28" stroke-width="0.9" stroke-opacity="0.35"/>
  <path d="M3.2 32.6 H28.8 L30 33.8 H2 Z" fill="#aaa59c"/>
  <path d="M2 33.8 H30 V35.6 H2 Z" fill="#dcb843"/>
  <path d="M3 35.6 L4.8 33.8 H7.4 L5.6 35.6 Z M10 35.6 L11.8 33.8 H14.4 L12.6 35.6 Z M17 35.6 L18.8 33.8 H21.4 L19.6 35.6 Z M24 35.6 L25.8 33.8 H28.4 L26.6 35.6 Z" fill="#2e2a2c" stroke="none"/>
  <path d="M2 33.8 H30 V35.6 H2 Z" fill="none"/>
  <path d="M1 35.6 H31" fill="none" stroke="#5f5b56" stroke-width="0.9"/>
</svg>
